<svg width="40" height="40" viewBox="0 0 40 40" fill="none" xmlns="http://www.w3.org/2000/svg">
<path d="M27.644 14.1801C28.5011 13.6439 29.1424 12.7996 29.4482 11.8049C28.6428 12.3049 27.7616 12.6572 26.8428 12.8464C25.5688 11.4362 23.5504 11.093 21.9154 12.0086C20.2803 12.9242 19.4334 14.8719 19.8479 16.7633C16.5489 16.59 13.4753 14.9594 11.392 12.2771C10.3047 14.2395 10.8603 16.7481 12.6617 18.01C12.0103 17.9881 11.3734 17.8035 10.804 17.4717C10.804 17.4897 10.804 17.5077 10.804 17.5257C10.8043 19.5699 12.1811 21.3307 14.0959 21.7358C13.4917 21.9079 12.8579 21.9332 12.2429 21.8099C12.7814 23.558 14.3211 24.7556 16.076 24.7914C14.6225 25.9851 12.8276 26.6325 10.9799 26.6293C10.6524 26.6298 10.3252 26.6101 9.99988 26.5703C11.8761 27.8319 14.0599 28.5016 16.2902 28.4992C19.393 28.5215 22.3749 27.2415 24.5689 24.9455C26.7629 22.6494 27.9859 19.529 27.9643 16.2821C27.9643 16.096 27.9602 15.9109 27.9519 15.7268C28.7554 15.1191 29.449 14.3663 29.9999 13.5037C29.2513 13.851 28.4572 14.0789 27.644 14.1801Z" fill="#F5F8FB"/>
</svg>
